# xmcd CD database file
# Copyright (C) 1997 Ti Kan
# 
# Track frame offsets:
#     150
#     15700
#     28058
#     45153
#     57305
#     71055
#     84778
#     101310
#     114845
#     127690
# 
# Disc length: 1953 seconds
# 
# Revision: 1
# Processed by: cddbd v1.4b41PL1 Copyright (c) Steve Scherf et al.
# Submitted via: DiscPlay 4.0.2
# 
DISCID=6a079f0a
DTITLE=Kris Kristofferson - Shake Hands With The Devil
DYEAR=1900
DGENRE=
TTITLE0=Shake Hands With The Devil
TTITLE1=Prove It To You One More Time Again
TTITLE2=Whiskey, Whiskey
TTITLE3=Lucky In Love
TTITLE4=Seadream
TTITLE5=Killer Barracuda
TTITLE6=Come Sundown
TTITLE7=Michoacan
TTITLE8=Once More With Feeling
TTITLE9=Fallen Angel
EXTD=
EXTT0=
EXTT1=
EXTT2=
EXTT3=
EXTT4=
EXTT5=
EXTT6=
EXTT7=
EXTT8=
EXTT9=
PLAYORDER=
